<svg id="Слой_1" data-name="Слой 1" xmlns="http://www.w3.org/2000/svg" viewBox="0 0 1065.24 785.86"><defs><style>.cls-1{fill:#22223b;}.cls-2{fill:#457b9d;}.cls-3{fill:#edf2f4;}.cls-4{fill:#000814;}.cls-5{fill:#bee1e6;}.cls-6{fill:#fff;}</style></defs><path class="cls-1" d="M612,181c-4-4.95-4-15.3-4-36,0-14.42,1-17.46,3-20,5.1-6.53,14-6.25,27-7,31.81-1.82,28.72-6.33,60-7,28-.6,34.31,3,38,7,3.13,3.43,4.42,8.62,7,19,3.3,13.26,5.63,23.19,1,33a30.41,30.41,0,0,1-9,11c-10.83,8.41-21.45,5.22-46,6s-25.73,4.32-45,3C627,188.83,617.76,188.07,612,181Z" transform="translate(-461.79 -110.93)"/><path class="cls-2" d="M463,331c-2.42,82.81-.56,142.58,0,170,.29,14,2,141.79,9,306,.8,18.67,2.44,47.78,23,68,29.25,28.77,78.7,21.75,100,19,182.37-23.57,366.34-32.85,549-54,18.7-2.17,60.52-6.76,86-38,24.68-30.25,21.54-70.15,20-92-10.32-146.48-8.62-220.1-8-271,.76-62.8,6.37-94.7-1-163-5.66-52.48-8.84-79.19-26-102-27.66-36.78-76-43.47-194-46-45.34-1-196.53-3.28-424,38-35.78,6.49-84,16-112,55C467.29,245.72,464.71,272.55,463,331Z" transform="translate(-461.79 -110.93)"/><path class="cls-3" d="M597,260c.68-9.78,8.87-17.19,18-17a18,18,0,0,1,17,15l-3,566a15.62,15.62,0,0,1-31-2Q597.5,541,597,260Z" transform="translate(-461.79 -110.93)"/><path class="cls-3" d="M1008,259c-9.32-10.42-6.54-29.92,2-42,7.17-10.14,17.5-13.79,27-17,17.65-6,22.73-1.35,50-4,29.25-2.84,36.44-9.41,47-3,9.66,5.87,14.49,17.94,15,28,.1,2,.57,14.73-8,25-7.53,9-15.64,8.49-53,15-26.65,4.65-36.35,7.33-54,6C1014.66,265.54,1009.86,261.08,1008,259Z" transform="translate(-461.79 -110.93)"/><path class="cls-1" d="M876,350c3.49-1,8.69-2.36,15-4,90.23-23.4,155.94-28.55,223-35,186.29-17.92,186.72-19.83,237-18,12.49.45,79.77,4.13,130,60,46,51.21,46.23,111.17,46,129-.07,5.41-2.52,90.74-70,149-30.75,26.54-60.35,34.83-111,49-51.94,14.53-69.63,11.64-182,24-61.8,6.8-99.33,12.38-170,17-63.32,4.14-89.89,3.35-120-10-44.94-19.93-68.72-55-76-66-45.28-68.6-28.78-143-25-160,3.46-15.58,11.62-50.46,40-85A192.67,192.67,0,0,1,876,350Z" transform="translate(-461.79 -110.93)"/><path class="cls-4" d="M920,353c-14.36,12.48-52.42,48.89-67,110-2.29,9.62-13.63,60.18,7,120,24.76,71.79,79,108.78,97,120,5.76,5.58,14.91,4.58,19-1,3.92-5.34,2.49-13.91-4-18-16-9.49-61.65-39.36-86-99-6.37-15.6-24.77-62.59-10-121,12.93-51.15,44-82.31,57-94,6.51-5.19,6.36-14.16,2-18C931.47,348.89,924.88,348.91,920,353Z" transform="translate(-461.79 -110.93)"/><path class="cls-4" d="M1045.71,332.81c-14.36,12.48-52.42,48.89-67,110-2.29,9.61-13.63,60.18,7,120,24.76,71.79,79,108.78,97,120,5.76,5.58,14.91,4.58,19-1,3.92-5.34,2.49-13.91-4-18-16-9.49-61.65-39.37-86-99-6.37-15.6-24.77-62.59-10-121,12.93-51.15,44-82.31,57-94,6.51-5.19,6.37-14.17,2-18C1057.18,328.7,1050.59,328.72,1045.71,332.81Z" transform="translate(-461.79 -110.93)"/><path class="cls-4" d="M1175.71,318.81c-14.36,12.48-52.42,48.89-67,110-2.29,9.61-13.63,60.18,7,120,24.76,71.79,79,108.78,97,120,5.76,5.58,14.91,4.58,19-1,3.92-5.34,2.49-13.91-4-18-16-9.49-61.65-39.37-86-99-6.37-15.6-24.77-62.59-10-121,12.93-51.15,44-82.31,57-94,6.51-5.19,6.37-14.17,2-18C1187.18,314.7,1180.59,314.72,1175.71,318.81Z" transform="translate(-461.79 -110.93)"/><path class="cls-5" d="M1321.68,312c35.31-9.39,64.63.59,77,5a151.36,151.36,0,0,1,81.57,68c26.48,46.23,22.51,92.87,20.85,110-1.83,18.77-12.42,100.06-78.85,139-7.14,4.18-64.67,36.56-125.07,6-46.69-23.62-65.08-69.67-71.6-86-5.23-13.09-30.08-79.49,0-150C1231.18,390.93,1259.64,328.5,1321.68,312Z" transform="translate(-461.79 -110.93)"/><path class="cls-6" d="M1337,323.09a6.86,6.86,0,0,1,7.33-6.91A129.52,129.52,0,0,1,1405.67,328a137.94,137.94,0,0,1,41.21,29.64A152,152,0,0,1,1478,406.09a6.38,6.38,0,0,1-3.67,6.91c-2.83,1.09-6.2-.6-7.32-3.95a136,136,0,0,0-26.55-41.5,123,123,0,0,0-40.29-28.65,114.26,114.26,0,0,0-56.77-8.89A6.93,6.93,0,0,1,1337,323.09Z" transform="translate(-461.79 -110.93)"/><path class="cls-6" d="M1478,419a5.73,5.73,0,0,1,7,4c1.1,4.07,2.12,8.4,3,13a178.65,178.65,0,0,1,3,25c-.1,3.74-2.49,6.64-5,7-3.12.45-7.18-2.91-7-8a154.62,154.62,0,0,0-2-20c-.84-5.05-1.87-9.72-3-14A5.73,5.73,0,0,1,1478,419Z" transform="translate(-461.79 -110.93)"/><path class="cls-6" d="M1017,218c-.67-2.79,4.61-6.13,6-7a28.14,28.14,0,0,1,13-4c12.06-1.1-3.92-1.14,24-4,31.68-3.24,27.72-.68,38-3,10.54-2.38,19.44-6.15,29-3,1.72.57,6.84,2.25,7,5,.12,1.95-2.33,3.56-3,4-4.92,3.23-10.59,1.55-16,1-4.63-.47-4.45.36-21,3-16,2.55-24,3.83-31,4-15.91.38-23.93-2.46-30,3a13.62,13.62,0,0,1-7,4C1022.28,221.64,1017.57,220.37,1017,218Z" transform="translate(-461.79 -110.93)"/></svg>